HIERARCHY
ROOT Hips
{
	OFFSET 0.00000 0.00000 0.00000
	CHANNELS 6 Xposition Yposition Zposition Zrotation Yrotation Xrotation 
	JOINT LHipJoint
	{
		OFFSET 0 0 0
		CHANNELS 3 Zrotation Yrotation Xrotation
		JOINT LeftHip
		{
			OFFSET 1.48831 -1.59570 0.95625
			CHANNELS 3 Zrotation Yrotation Xrotation
			JOINT LeftKnee
			{
				OFFSET 2.20856 -6.06797 0.00000
				CHANNELS 3 Zrotation Yrotation Xrotation
				JOINT LeftAnkle
				{
					OFFSET 2.62924 -7.22379 0.00000
					CHANNELS 3 Zrotation Yrotation Xrotation
					JOINT LeftToe
					{
						OFFSET 0.16802 -0.46163 2.41673
						CHANNELS 3 Zrotation Yrotation Xrotation
						End Site
						{
							OFFSET 0.00000 -0.00000 1.23760
						}
					}
				}
			}
		}
	}
	JOINT RHipJoint
	{
		OFFSET 0 0 0
		CHANNELS 3 Zrotation Yrotation Xrotation
		JOINT RightHip
		{
			OFFSET -1.56796 -1.59570 0.95625
			CHANNELS 3 Zrotation Yrotation Xrotation
			JOINT RightKnee
			{
				OFFSET -2.29239 -6.29829 0.00000
				CHANNELS 3 Zrotation Yrotation Xrotation
				JOINT RightAnkle
				{
					OFFSET -2.66963 -7.33475 0.00000
					CHANNELS 3 Zrotation Yrotation Xrotation
					JOINT RightToe
					{
						OFFSET -0.18185 -0.49964 2.34359
						CHANNELS 3 Zrotation Yrotation Xrotation
						End Site
						{
							OFFSET -0.00000 -0.00000 1.20477
						}
					}
				}
			}
		}
	}
	JOINT lowerback
	{
		OFFSET 0 0 0
		CHANNELS 3 Zrotation Yrotation Xrotation
		JOINT Chest
		{
			OFFSET 0.03505 2.15832 -0.34324
			CHANNELS 3 Zrotation Yrotation Xrotation
			JOINT Chest2
			{
				OFFSET -0.01089 2.17963 0.04689
				CHANNELS 3 Zrotation Yrotation Xrotation
				JOINT lowerneck
				{
					OFFSET 0 0 0
					CHANNELS 3 Zrotation Yrotation Xrotation
					JOINT Neck
					{
						OFFSET 0.04686 1.69404 0.22159
						CHANNELS 3 Zrotation Yrotation Xrotation
						JOINT Head
						{
							OFFSET 0.00265 1.69305 -0.01513
							CHANNELS 3 Zrotation Yrotation Xrotation
							End Site
							{
								OFFSET -0.00415 1.80215 -0.03034
							}
						}
					}
				}
				JOINT LeftCollar
				{
					OFFSET 0 0 0
					CHANNELS 3 Zrotation Yrotation Xrotation
					JOINT LeftShoulder
					{
						OFFSET 3.67184 1.11724 -0.19002
CHANNELS 3 Zrotation Xrotation Yrotation
						JOINT LeftElbow
						{
OFFSET 0 -5.177140 -0.000000
CHANNELS 3 Zrotation Xrotation Yrotation
							JOINT LeftWrist
							{
OFFSET 0 -3.436790 -0.000000
CHANNELS 3 Zrotation Xrotation Yrotation
								JOINT lhand
								{
									OFFSET 0 0 0
CHANNELS 3 Zrotation Xrotation Yrotation
									JOINT LFingers
									{
OFFSET 0 -0.573120 -0.000000
CHANNELS 3 Zrotation Xrotation Yrotation
										End Site
										{
OFFSET 0 -0.462060 -0.000000
										}
									}
								}
								JOINT LThumb
								{
OFFSET 0 0.000000 0.000000
CHANNELS 3 Zrotation Xrotation Yrotation
									End Site
									{
OFFSET 0 -0.469120 0.469120
									}
								}
							}
						}
					}
				}
				JOINT RightCollar
				{
					OFFSET 0 0 0
					CHANNELS 3 Zrotation Yrotation Xrotation
					JOINT RightShoulder
					{
						OFFSET -3.59596 0.95831 -0.26050
CHANNELS 3 Zrotation Xrotation Yrotation
						JOINT RightElbow
						{
OFFSET 0 -5.239080 -0.000000
CHANNELS 3 Zrotation Xrotation Yrotation
							JOINT RightWrist
							{
OFFSET 0 -3.464850 -0.000000
CHANNELS 3 Zrotation Xrotation Yrotation
								JOINT rhand
								{
									OFFSET 0 0 0
CHANNELS 3 Zrotation Xrotation Yrotation
									JOINT RFingers
									{
OFFSET 0 -0.608750 -0.000000
CHANNELS 3 Zrotation Xrotation Yrotation
										End Site
										{
OFFSET 0 -0.490790 -0.000000
										}
									}
								}
								JOINT RThumb
								{
OFFSET 0 0.000000 0.000000
CHANNELS 3 Zrotation Xrotation Yrotation
									End Site
									{
OFFSET 0 -0.498290 0.498290
									}
								}
							}
						}
					}
				}
			}
		}
	}
}
MOTION
Frames: 6
Frame Time: 0.008333333333333333
3.048041 15.752031 -23.069480 -545.889406 -41.254096 537.971386 0.000000 0.000000 0.000000 -25.159390 23.418098 -7.424133 2.471527 9.785929 28.286189 1.261528 -14.118746 -21.007133 0.019963 -0.912459 -2.507913 0.000000 0.000000 0.000000 8.896891 3.136597 -22.571331 -7.801600 -15.971372 51.844871 -1.754626 -6.711902 -28.197585 -0.008906 0.609918 -1.676027 -0.298524 3.523224 -5.793791 -6.202709 4.587379 -1.429082 -5.920556 2.190678 2.258549 -4.204439 0.221198 -0.356797 10.890291 -5.422897 31.975637 4.029331 -3.045126 10.665373 0.000000 0.000000 0.000000 3.165632 10.689420 25.453341 12.138927 -20.012595 2.149623 16.663890 -20.901423 -10.441160 0.000000 0.000000 0.000000 -7.125000 0.000000 0.000000 -9.165425 40.698252 -0.981601 0.000000 0.000000 0.000000 4.205279 -27.513259 47.879873 -160.223459 -30.372186 -114.582116 15.327971 -38.583664 36.927256 0.000000 0.000000 0.000000 7.125000 0.000000 0.000000 54.662985 58.386894 -21.989207
3.039203 15.744198 -23.078928 -546.463120 -40.922741 538.243254 0.000000 0.000000 0.000000 -25.640403 23.657353 -7.095430 2.406122 9.665146 27.899053 1.273435 -13.866336 -21.028943 0.022369 -0.966417 -2.656311 0.000000 0.000000 0.000000 8.344301 2.953288 -22.710508 -7.872595 -16.024691 52.102399 -1.744834 -6.381194 -27.936646 -0.011917 0.704463 -1.935873 -0.566661 3.655146 -5.967038 -6.508477 4.762664 -1.459883 -6.069280 2.265190 2.345822 -3.770953 -0.042623 -0.509375 10.520099 -5.744013 31.984869 3.780540 -3.172416 10.715218 0.000000 0.000000 0.000000 3.912151 9.988649 23.881012 12.469527 -20.505049 2.264111 16.377685 -21.177788 -10.194980 0.000000 0.000000 0.000000 -7.125000 0.000000 0.000000 -9.366937 40.421238 -1.068121 0.000000 0.000000 0.000000 4.224772 -27.857234 46.940198 -160.399330 -30.158197 -114.670789 16.054215 -39.206718 37.091127 0.000000 0.000000 0.000000 7.125000 0.000000 0.000000 55.476129 58.322928 -22.372664
3.027900 15.738793 -23.086034 -546.501347 -40.412105 538.107521 0.000000 0.000000 0.000000 -25.682026 23.929324 -6.843085 2.377638 9.611945 27.729018 1.310079 -13.553212 -21.214183 0.026276 -1.046412 -2.876568 0.000000 0.000000 0.000000 8.276519 2.923358 -22.714059 -7.900583 -16.045645 52.203913 -1.721245 -6.162871 -27.648583 -0.015796 0.811795 -2.231168 -0.651856 3.418431 -6.092536 -6.255077 4.446635 -1.635439 -5.778255 2.104392 2.173475 -4.231742 0.082395 -0.473611 10.018766 -5.401087 32.171363 3.711349 -3.126614 10.740744 0.000000 0.000000 0.000000 3.595142 9.870229 23.018745 13.159534 -21.520516 2.511544 16.328817 -22.091005 -10.039753 0.000000 0.000000 0.000000 -7.125000 0.000000 0.000000 -9.379884 40.258112 -1.107727 0.000000 0.000000 0.000000 4.055582 -28.172677 47.078598 -160.522729 -30.007433 -114.732610 16.977586 -40.271774 37.309928 0.000000 0.000000 0.000000 7.125000 0.000000 0.000000 56.518006 58.246315 -22.878849
3.015557 15.734539 -23.091233 -546.440826 -39.832704 537.940669 0.000000 0.000000 0.000000 -25.675708 24.163312 -6.689932 2.365302 9.588825 27.655205 1.352785 -13.192445 -21.435830 0.030361 -1.124985 -3.092780 0.000000 0.000000 0.000000 8.299560 3.004108 -22.718767 -7.915414 -16.056731 52.257518 -1.702380 -5.910779 -27.373546 -0.019555 0.903629 -2.483588 -0.592002 3.263506 -6.270345 -6.026360 4.235739 -1.797896 -5.583881 1.998570 2.070328 -4.579272 0.125775 -0.547339 9.500297 -5.160787 32.303966 3.603697 -3.108976 10.776356 0.000000 0.000000 0.000000 3.510835 9.637789 22.102735 13.853383 -22.524696 2.771706 16.482368 -23.003326 -9.912349 0.000000 0.000000 0.000000 -7.125000 0.000000 0.000000 -9.223218 40.140443 -1.115803 0.000000 0.000000 0.000000 3.927494 -28.717350 47.101407 -160.611584 -29.898484 -114.776892 17.792701 -41.211128 37.353977 0.000000 0.000000 0.000000 7.125000 0.000000 0.000000 57.252571 58.083754 -23.084593
3.005259 15.731029 -23.092964 -546.414726 -39.270129 537.870735 0.000000 0.000000 0.000000 -25.740700 24.345018 -6.640060 2.355222 9.569766 27.594448 1.391351 -12.829777 -21.633733 0.035856 -1.222252 -3.360465 0.000000 0.000000 0.000000 8.294999 3.106341 -22.825849 -7.932813 -16.069606 52.320302 -1.677783 -5.740146 -27.105354 -0.024271 1.005840 -2.764945 -0.487586 3.213223 -6.431049 -5.906938 4.153596 -1.995525 -5.521358 1.953777 1.945930 -4.776089 0.021194 -0.712330 9.026047 -5.140660 32.358001 3.462982 -3.163417 10.820061 0.000000 0.000000 0.000000 3.769520 9.338656 21.075470 14.488871 -23.429196 3.019783 16.535205 -23.639131 -9.776640 0.000000 0.000000 0.000000 -7.125000 0.000000 0.000000 -9.152579 40.005706 -1.137745 0.000000 0.000000 0.000000 3.850249 -29.423322 46.893945 -160.632473 -29.872813 -114.787386 18.136011 -41.769785 37.274603 0.000000 0.000000 0.000000 7.125000 0.000000 0.000000 57.441866 57.954282 -23.010387
2.991783 15.726865 -23.093377 -546.275195 -38.662153 537.654217 0.000000 0.000000 0.000000 -25.683249 24.560209 -6.545966 2.356803 9.572820 27.604181 1.435991 -12.479769 -21.882058 0.040321 -1.296037 -3.563652 0.000000 0.000000 0.000000 8.401207 3.244730 -22.820539 -7.938877 -16.074088 52.342193 -1.652871 -5.604154 -26.853528 -0.026426 1.048923 -2.883340 -0.221482 3.254196 -6.498607 -5.820553 4.184399 -2.165803 -5.579324 1.967055 1.823024 -4.933234 -0.279625 -0.855212 8.529672 -5.356619 32.202190 3.282055 -3.314527 10.798115 0.000000 0.000000 0.000000 4.235086 8.961426 20.134629 14.995406 -24.139572 3.224074 16.543807 -23.976916 -9.657477 0.000000 0.000000 0.000000 -7.125000 0.000000 0.000000 -9.123373 39.884208 -1.161607 0.000000 0.000000 0.000000 3.784437 -30.310151 46.545007 -160.653341 -29.847208 -114.797702 18.422385 -42.145011 37.201429 0.000000 0.000000 0.000000 7.125000 0.000000 0.000000 57.590795 57.842327 -22.936247
